<svg width="55" height="55" viewBox="0 0 55 55" fill="none" xmlns="http://www.w3.org/2000/svg">
<g clip-path="url(#clip0_2259_62170)">
<path d="M43.2006 25.06C43.2006 25.06 42.6586 25.6815 42.9043 26.6571C43.15 27.6327 41.7409 28.4493 41.8998 29.396C42.0661 30.3427 40.9748 31.6723 42.2539 32.1638C43.5258 32.6552 44.0678 31.9975 44.2051 31.4556C44.3424 30.9136 43.3668 30.3138 43.9305 29.1503C44.4942 27.9868 45.0723 27.1991 44.9856 25.5731C44.8989 23.9472 45.094 22.8054 44.1473 22.155C43.2006 21.5046 43.9088 23.8677 43.2006 25.06ZM39.0381 27.3798C41.0688 26.8884 40.2594 25.7538 39.9704 24.5759C39.6813 23.3979 40.5774 22.9499 39.6885 21.772C39.4284 21.4251 39.0959 21.2661 38.7563 21.1794C38.7563 21.2155 38.7563 21.2444 38.7563 21.2806C38.7563 23.6798 37.3616 25.7538 35.3381 26.7438C35.1647 26.8233 35.0274 26.9606 34.9334 27.1268L33.0112 30.5378C32.8666 30.7979 32.4981 30.7979 32.3536 30.5378L30.4313 27.1268C30.3373 26.9606 30.1928 26.8306 30.0266 26.7438C28.0465 25.7755 26.6735 23.7665 26.6157 21.4323C26.5723 19.51 27.4034 17.7901 28.7547 16.6411C28.2778 16.5833 27.7719 16.5977 27.2516 16.8073C25.7485 17.4143 24.9752 17.212 24.9752 18.9247C24.9752 20.6374 22.5327 19.4161 20.9934 19.6979C19.4541 19.9798 19.2446 20.4639 17.3368 19.8569C15.4289 19.2499 14.4895 19.9003 14.0053 21.0421C13.5139 22.1839 15.0243 23.3979 14.3739 24.5831C13.7235 25.7682 12.4661 25.6382 13.3983 27.1052C14.3305 28.5722 11.9746 28.1602 11.5266 27.1052C11.0786 26.0501 9.40922 24.9083 8.84555 25.313C8.28188 25.7177 7.74711 27.0184 8.84555 27.5893C9.94398 28.1602 10.2692 28.8901 9.69828 29.2587C9.12738 29.6272 8.09398 29.5405 8.20238 30.1548C8.31078 30.769 7.73266 31.8747 8.19516 33.2839C8.65043 34.6931 7.59535 36.8321 8.24574 38.2196C8.89613 39.6071 10.3053 38.2196 12.9358 38.4075C15.5663 38.5954 15.6168 37.1573 15.6168 37.1573C15.6168 37.1573 14.858 36.9911 13.2321 36.0155C11.6061 35.0399 11.8735 32.1421 12.9069 32.2505C13.9403 32.3589 13.5284 33.5802 15.0243 34.2016C16.5202 34.8231 16.325 36.4491 18.7676 36.6948C21.2102 36.9405 19.3385 39.2169 20.9211 41.168C22.5038 43.1192 21.0873 43.4011 22.5471 43.813C24.0069 44.2249 23.6455 40.8862 24.9463 40.3587C26.2471 39.8311 26.1243 38.3641 28.1983 38.2847C30.2723 38.2052 29.3401 40.5177 30.8432 40.8862C32.3463 41.2548 31.0094 44.7886 33.77 46.335C36.5377 47.8815 34.6227 45.6413 34.1747 44.8319C33.7266 44.0225 33.0329 42.1075 34.0952 42.2665C35.1502 42.4327 36.0463 41.8618 36.292 41.168C36.5377 40.4743 33.5098 38.8483 35.0996 37.5837C36.6823 36.3263 37.9903 37.2151 38.3516 36.1167C38.7129 35.0182 39.6957 34.5341 39.5295 33.2694C39.3633 32.0048 39.161 31.0725 37.7807 30.2632C36.4004 29.4538 37.0075 27.8639 39.0381 27.3798Z" fill="#2C4872"/>
<path d="M14.4461 28.2834C14.8941 29.3385 17.25 29.7504 16.3177 28.2834C15.3855 26.8164 16.6429 26.9392 17.2933 25.7613C17.9437 24.5834 16.4406 23.3621 16.9248 22.2203C17.409 21.0785 18.3484 20.4281 20.2562 21.0351C22.164 21.6422 22.3736 21.158 23.9129 20.8762C24.7295 20.7244 25.7845 20.9918 26.6084 21.0279C26.6734 19.2646 27.4828 17.6965 28.7402 16.6269C28.2632 16.5691 27.7574 16.5836 27.2371 16.7931C25.734 17.4002 24.9607 17.1978 24.9607 18.9105C24.9607 20.6232 22.5181 19.4019 20.9789 19.6838C19.4396 19.9656 19.23 20.4498 17.3222 19.8428C15.4144 19.2357 14.475 19.8861 13.9908 21.0279C13.5066 22.1697 15.0097 23.3838 14.3593 24.5689C13.7306 25.7035 12.5382 25.6312 13.2898 26.9392C13.7812 27.3006 14.2437 27.7992 14.4461 28.2834ZM11.1146 34.4621C10.6593 33.0529 11.2375 31.94 11.1218 31.333C11.0134 30.726 12.0468 30.8055 12.6177 30.4369C13.1886 30.0683 12.8634 29.3385 11.765 28.7676C10.9123 28.3267 11.0423 27.4379 11.4109 26.8742C10.8472 25.8842 9.36579 24.9158 8.83102 25.2988C8.26012 25.7035 7.73258 27.0043 8.83102 27.5752C9.92946 28.1461 10.2547 28.876 9.68376 29.2445C9.11286 29.6131 8.07946 29.5264 8.18786 30.1406C8.29626 30.7476 7.71813 31.8605 8.18063 33.2697C8.64313 34.6789 7.58083 36.818 8.23122 38.2055C8.69372 39.1955 9.54645 38.7691 10.9556 38.5162C10.8689 37.2154 11.4832 35.6039 11.1146 34.4621ZM34.0806 42.2596C34.0951 42.2596 34.1168 42.2668 34.1312 42.2668C34.03 42.1728 33.9072 42.1078 33.7627 42.0717C32.2595 41.7031 33.1918 39.3906 31.1177 39.4701C30.5541 39.4918 30.1566 39.6146 29.8459 39.7953C30.0121 40.2867 30.2289 40.7348 30.8287 40.8865C32.3318 41.2551 30.9949 44.7889 33.7554 46.3353C36.5232 47.8818 34.6082 45.6416 34.1601 44.8322C33.7121 44.0084 33.0256 42.1006 34.0806 42.2596ZM21.6871 37.8803C20.8127 37.7935 20.2779 37.5262 19.8804 37.1937C20.4875 38.0248 19.707 39.6869 20.9066 41.1611C22.4892 43.1123 21.0728 43.3941 22.5326 43.806C23.2914 44.0156 23.5588 43.2207 23.8189 42.3318C22.2652 40.3879 24.1152 38.126 21.6871 37.8803Z" fill="#122644"/>
<path d="M32.5486 15.2031C34.4058 15.1598 36.0752 15.9475 37.217 17.2266C37.347 17.1687 37.4843 17.1254 37.6217 17.0893C39.5295 16.5979 38.0263 14.8924 39.0453 14.5672C40.0642 14.242 38.6767 12.4137 39.291 11.3152C39.9052 10.2168 36.6099 9.84824 34.7383 10.383C34.7383 10.383 33.4375 10.6287 33.7193 11.8861C34.0011 13.1436 34.1601 13.7578 32.7365 14.5311C32.3246 14.7551 32.1006 15.0008 31.9633 15.2537C32.1584 15.2248 32.3535 15.2104 32.5486 15.2031Z" fill="#2C4872"/>
<path d="M35.909 13.8228C35.6271 12.5581 36.9279 12.3124 36.9279 12.3124C37.5638 12.1317 38.366 12.0595 39.1248 12.0739C39.1176 11.7993 39.1609 11.5392 39.2838 11.3079C39.8908 10.2095 36.6027 9.84092 34.731 10.3757C34.731 10.3757 33.4302 10.6214 33.7121 11.8788C33.9939 13.1362 34.1601 13.7577 32.7365 14.531C32.3246 14.755 32.1006 15.0007 31.9633 15.2536C32.1584 15.2319 32.3463 15.2175 32.5414 15.2103C33.6687 15.1813 34.731 15.4704 35.6488 15.9835C36.2847 15.3981 36.133 14.8056 35.909 13.8228Z" fill="#122644"/>
<path d="M28.7475 16.6413C28.7475 16.6413 31.19 15.9692 31.9633 15.2465C32.7365 14.5239 36.8195 15.5139 37.2098 17.2266C37.6 18.9393 38.0914 19.7487 38.7563 21.1795C39.4211 22.6104 38.7563 25.501 38.7563 25.501L35.8801 29.2372L33.1629 33.826L25.3148 29.5118L25.0186 22.0467L27.2516 16.8075L28.7475 16.6413Z" fill="#2C4872"/>
<path d="M25.1992 20.7532C25.1992 20.7532 25.8857 21.5987 27.584 20.9194C29.275 20.2401 28.4078 17.0098 30.9299 17.0098C33.452 17.0098 35.208 17.0315 35.6561 15.9764C36.1041 14.9213 35.1791 14.2131 35.1791 14.2131C35.1791 14.2131 32.8521 14.4227 31.9705 15.2465C31.0889 16.0704 30.2578 16.475 28.7547 16.6413C27.2516 16.8075 26.8975 16.7569 26.9697 17.2266C27.042 17.6963 25.1992 20.7532 25.1992 20.7532Z" fill="#122644"/>
</g>
<rect x="0.25" y="0.25" width="54.5" height="54.5" rx="27.25" stroke="#E3E9ED" stroke-width="0.5"/>
<defs>
<clipPath id="clip0_2259_62170">
<rect width="37" height="37" fill="white" transform="translate(8 10)"/>
</clipPath>
</defs>
</svg>
