<svg width="39" height="39" viewBox="0 0 39 39" fill="none" xmlns="http://www.w3.org/2000/svg">
<g clip-path="url(#clip0_2267_61569)">
<path d="M34.7273 2.29995C34.3273 2.29995 33.8273 2.39995 33.4273 2.49995C33.0273 2.69995 32.6273 2.89995 32.3273 3.19995L28.8273 6.49995C28.6273 6.69995 28.4273 6.89995 28.3273 7.19995C28.3273 7.49995 28.4273 7.69995 28.5273 7.99995C28.6273 8.69995 27.8273 9.29995 27.1273 9.29995C26.7273 9.29995 26.3273 9.09995 26.0273 8.89995C25.6273 8.59995 25.5273 8.09995 25.8273 7.69995C26.0273 7.49995 26.2273 7.19995 26.3273 6.89995C26.5273 6.49995 26.3273 5.99995 25.8273 5.79995L24.0273 5.19995C23.1273 4.89995 22.2273 4.59995 21.3273 4.79995C20.0273 5.09995 19.1273 6.29995 18.4273 7.49995C17.7273 8.69995 17.1273 9.99995 15.9273 10.7C15.5273 10.9 15.1273 11.1 14.8273 11.3C14.5273 11.5 13.1273 13.2 13.4273 13.8C13.6273 14.2 13.9273 14.4 14.3273 14.4C15.0273 14.5 15.5273 14.1 16.0273 13.7C16.1273 13.6 16.3273 13.7 16.2273 13.8C16.1273 15.2 16.1273 17.3 16.9273 17.3C17.8273 17.4 19.0273 14.8 19.0273 14C19.0273 13.2 18.3273 13.2 18.4273 12.8C18.4273 12.3 18.7273 11.9 18.8273 11.4C19.1273 10.5 19.2273 9.39995 20.2273 8.79995C20.6273 8.49995 21.2273 8.59995 21.6273 8.89995C22.0273 9.29995 21.9273 9.79995 21.7273 10.2C21.4273 10.8 21.0273 11.2 20.8273 11.8C20.6273 12.4 20.6273 13.1 21.1273 13.4C21.7273 13.7 22.3273 13.3 22.9273 13C23.5273 12.7 24.3273 12.5 24.6273 13.1C24.4273 14 24.2273 14.9 23.7273 15.7C23.1273 16.4 22.1273 16.9 21.3273 16.5C20.9273 16.6 20.7273 17 20.6273 17.4C20.6273 17.8 20.7273 18.2 20.6273 18.6C20.3273 19.8 18.8273 20 17.7273 20.1L15.4273 20.2C15.2273 20.2 15.1273 20.2 14.9273 20.1C14.8273 20 14.8273 19.8 14.7273 19.6C14.7273 19 15.0273 18.2 14.6273 17.7C14.3273 17.4 13.3273 17.5 13.1273 17.9C12.9273 18.3 13.2273 19.2 12.9273 19.6C12.6273 20 11.7273 20.2 11.2273 21.2C11.1273 21.5 10.9273 21.8 10.7273 22C10.5273 22.2 10.2273 22.3 9.92725 22.4C8.62725 22.8 6.62725 21.9 6.02725 22.6C5.52725 23.3 5.82725 24.3 6.02725 25.1C6.32725 25.9 6.52725 27 5.82725 27.5C5.22725 28 4.32725 27.7 3.62725 27.4L2.02725 26.6C1.52725 26.4 1.02725 26.7 0.927254 27.1L0.227254 29.6C0.127254 30.1 -0.0727458 30.6 0.0272542 31.2C0.227254 32.1 1.12725 32.7 2.02725 33C2.62725 33.2 3.32725 33.3 3.92725 33.4C4.42725 33.5 4.82725 33.1999 4.92725 32.7999C5.02725 32.3999 5.12725 32 5.42725 31.7C5.82725 31.1 6.32725 30.6 7.02725 30.5C7.32725 30.5 7.82725 30.5 8.02725 30.2C8.22725 30 8.12725 29.7 8.22725 29.4C8.42725 29 9.12725 29 9.62725 29.1C10.4273 29.2 11.3273 29.1 12.0273 28.7C12.4273 28.5 12.8273 28.7 13.0273 29C13.6273 29.8 13.9273 31.3 14.5273 32.2C15.0273 33 15.3273 33.1999 15.4273 34.0999C15.4273 34.1999 15.4273 34.3 15.3273 34.4C15.3273 34.5 15.2273 34.5999 15.1273 34.5999C14.7273 34.8999 14.3273 35.2999 13.8273 35.2999C13.7273 35.2999 13.6273 35.3999 13.7273 35.5999C13.9273 35.8999 14.5273 36.4999 14.7273 36.5999C15.0273 36.6999 15.3273 36.6999 15.6273 36.5999C16.6273 36.3999 17.0273 35.4999 17.1273 35.2999C17.2273 35.0999 17.8273 34.9 17.8273 34.9C17.9273 35 18.0273 35 18.1273 34.9C18.2273 34.7 18.2273 34.4 18.1273 34.2C17.9273 33.9 17.6273 33.7 17.3273 33.5C16.3273 32.8 16.2273 31 15.5273 30C15.3273 29.8 15.2273 29.5 15.2273 29.2C15.1273 28.7 15.6273 28.4 16.0273 28.6L19.2273 30.5C19.4273 30.6 19.6273 30.7 19.7273 30.9C20.0273 31.4 19.7273 32 19.8273 32.5C19.9273 32.9 20.3273 33.2 20.6273 33.4C20.9273 33.7 20.7273 34.3 21.0273 34.5C21.2273 34.6 21.4273 34.6 21.6273 34.5C21.7273 34.4 21.9273 34.4 22.1273 34.4C22.5273 34.4 22.9273 34.3 22.8273 33.9C22.8273 33.8 22.7273 33.8 22.7273 33.7L22.1273 32.4C22.0273 32 22.4273 32 22.7273 32C22.9273 32 23.5273 32 23.8273 32C24.1273 32 25.5273 30.7 25.6273 30.1L26.0273 28C26.1273 27.7 26.1273 27.4 26.3273 27.1C26.5273 26.9 26.8273 27.3 27.1273 27.1C27.5273 26.9 27.3273 26.3999 27.9273 26.2999C28.1273 26.2999 28.4273 26.4 28.5273 26.6C28.6273 26.7 28.6273 26.7 28.7273 26.7C28.8273 26.7 28.8273 26.7 28.9273 26.6C29.4273 26.3 29.7273 25.8 30.1273 25.4C30.5273 25 31.3273 24.6 31.6273 24.9C31.8273 25.2 32.2273 26.3 30.3273 27.4C29.9273 27.6 29.9273 28 30.1273 28.4C30.2273 28.6 30.4273 28.7 30.6273 28.7C31.1273 28.7 31.8273 28 32.6273 28.7C32.7273 28.8 33.1273 29.9 32.2273 30.2C31.0273 30.5 30.5273 30.5 29.0273 30.7C28.3273 30.8 27.6273 30.9 27.1273 31.4C26.8273 31.8 26.6273 32.3 26.2273 32.5C26.0273 32.7 25.7273 32.7 25.5273 32.9C25.2273 33.2 25.1273 33.6 25.2273 34C25.3273 34.4 25.6273 34.6999 25.8273 35.0999C26.0273 35.2999 26.1273 35.4999 26.3273 35.5999C26.5273 35.6999 26.7273 35.7 26.9273 35.7C28.1273 35.6 29.3273 34.7999 30.5273 35.0999C30.7273 35.1999 31.0273 35.2999 31.2273 35.2999C31.6273 35.2999 31.9273 35.1 32.1273 34.9C33.3273 34.1 34.6273 33.4999 36.1273 33.2999C36.4273 33.2999 36.8273 33.2 36.9273 32.9C37.0273 32.8 37.0273 32.6 37.0273 32.5C37.0273 31.8 37.0273 30.9 36.4273 30.4C36.2273 30.2 35.9273 30.1 35.6273 30C34.8273 29.6 34.6273 28.2999 34.9273 27.7999C35.1273 27.3999 37.0273 28.4 38.0273 29C38.3273 29.2 38.7273 28.9 38.7273 28.6V2.59995C38.7273 2.49995 38.7273 2.49995 38.7273 2.39995C38.7273 2.29995 38.6273 2.29995 38.6273 2.29995L38.5273 2.19995C38.4273 2.19995 38.4273 2.19995 38.3273 2.19995C37.5273 2.29995 35.1273 2.29995 34.7273 2.29995Z" fill="#40C4FF"/>
<path d="M17 12C17.5 14.5 17 14 18 15.7001C18.1 15.9001 18.15 16.0001 18.25 16.1001C17.85 16.8001 17.4 17.4001 16.9 17.4001C16.1 17.3001 16.1 15.2001 16.2 13.9001C16.2 13.8001 16.1 13.7001 16 13.8001C15.5 14.2001 14.9 14.6001 14.2 14.5001C13.8 14.5001 13.4 14.2001 13.3 13.9001C13.1 13.3001 14.4 11.7001 14.7 11.4001C15.0543 11.0458 15.5 10.9 15.8 10.7C17 10 17.6 8.8001 18.3 7.6001C18.7 6.9001 19.4 6 20 5.5C20.2 6.2 19.9 7.0001 19.5 7.4001C18.2 8.7001 18 9.7 17 12Z" fill="#00B0FF"/>
<path d="M17.3392 21.0001C15.0392 21.3001 15.0392 23.4001 11.5392 24.0001C8.03921 24.7001 9.03921 28.1001 4.93921 29.7001C1.93921 30.9001 1.89998 31.4998 1.99998 32.9998C1.09998 32.7998 0.239206 32.1001 0.0392064 31.2001C8.24537e-05 30.4998 -0.0108203 30.4998 0.249997 29.4998L0.9 27.2001C1 26.6001 1.53921 26.4001 2.03921 26.6001L3.83921 27.3001C4.53921 27.6001 5.29833 27.8001 5.89833 27.3001C6.59833 26.8001 6.21614 25.5764 5.99998 25C5.69998 24.2 5.39998 23.2 5.99998 22.5C6.69998 21.8 8.83921 22.7001 10.1392 22.3001C10.4392 22.2001 10.6 22.1001 10.8 21.9001C11 21.7001 11.04 21.4001 11.24 21.1001C11.74 20.1001 12.6 20 12.9 19.5C13.2 19 12.9392 18.1767 13.1392 17.7767C13.3392 17.3767 14.5392 17.3001 14.8392 17.6001C15.2392 18.1001 14.9392 18.8001 14.9392 19.5001C14.9392 19.7001 14.9392 19.9001 15.0392 20.0001C15.1392 20.1001 15.3392 20.1001 15.5392 20.1001L17.9392 20.0001C19.1392 19.9001 20.3 19.7 20.5 18.5C20.6 18.1 20.5 17.9 20.5 17.5C20.5 17.4 21 16.5 21.35 16.5C21 17 21.9392 17.8001 22.1392 18.6001C22.8392 20.9001 19.6392 20.6001 17.3392 21.0001Z" fill="#00B0FF"/>
</g>
<defs>
<clipPath id="clip0_2267_61569">
<rect width="39" height="39" fill="white"/>
</clipPath>
</defs>
</svg>
