<svg width="55" height="55" viewBox="0 0 55 55" fill="none" xmlns="http://www.w3.org/2000/svg">
<g clip-path="url(#clip0_2259_62218)">
<mask id="mask0_2259_62218" style="mask-type:luminance" maskUnits="userSpaceOnUse" x="8" y="7" width="39" height="40">
<path d="M47 7.5H8V46.5H47V7.5Z" fill="white"/>
</mask>
<g mask="url(#mask0_2259_62218)">
<path d="M12.3 13.2999L12.7 13.7999C12.9 14.0999 13.2 14.1999 13.5 14.1999H15C15.2 14.1999 15.4 14.1999 15.5 14.0999L17.5 13.0999C17.7 12.9999 17.8 12.9999 18 12.9999H19.9C20.1 12.9999 20.4 13.0999 20.6 13.1999L21.6 13.9999C21.8 14.1999 22 14.1999 22.3 14.1999H26.8C27.1 14.1999 27.4 14.2999 27.6 14.5999L30 17.1999C30.2 17.3999 30.5 17.5999 30.8 17.5999H32.3C32.6 17.5999 32.9 17.6999 33.1 17.9999L34.2 19.3999C34.4 19.6999 34.7 19.7999 35 19.7999H36.6C36.8 19.7999 37 19.6999 37.1 19.6999L39.6 18.1999C39.8 18.0999 40.1 17.9999 40.4 18.0999L43.2 18.6999C43.4 18.6999 43.6 18.8999 43.8 18.9999L45.6 20.7999C45.9 21.0999 46 21.6999 45.8 22.0999L44.9 23.7999C44.8 24.0999 44.7 24.3999 44.8 24.6999L45.5 26.7999C45.5 26.8999 45.6 26.9999 45.6 27.0999V28.4999C45.6 28.7999 45.7 29.0999 45.9 29.2999L46.7 30.0999C47.2 30.4999 47.1 31.2999 46.7 31.6999L46.2 32.1999C46 32.2999 45.9 32.4999 45.9 32.7999L45.7 33.4999C45.5 34.1999 44.8 34.4999 44.2 34.1999L42 33.0999C41.7 32.9999 41.6 32.7999 41.5 32.4999L41.1 31.4999C40.9 31.0999 40.5 30.7999 40.1 30.7999H37.4C37.1 30.7999 36.9 30.6999 36.7 30.4999L34.6 28.4999C34.2 28.0999 33.5 28.0999 33.1 28.4999L32.9 28.6999C32.5 29.0999 32.5 29.6999 32.8 30.0999L35.6 34.2999C35.8 34.4999 36 34.6999 36.3 34.7999L37.5 34.9999C37.8 35.0999 38.1 34.9999 38.4 34.7999L38.7 34.4999C39.1 34.1999 39.7 34.1999 40.1 34.4999L42.4 36.3999C42.8 36.7999 42.9 37.3999 42.6 37.7999L40.4 41.3999C40.3 41.5999 40.1 41.7999 39.9 41.7999L28.4 46.4999C27.8 46.6999 27.2 46.3999 27 45.8999L26.1 43.3999C26 43.0999 26 42.8999 26.1 42.5999L26.5 41.5999C26.6 41.2999 26.6 40.8999 26.4 40.5999L20 30.7999C19.7 30.3999 19.2 30.1999 18.7 30.3999C18.2 30.5999 17.9 31.1999 18.1 31.7999L19.4 35.4999C19.5 35.8999 19.4 36.2999 19.2 36.5999L18 37.8999C17.8 38.0999 17.5 38.1999 17.2 38.1999H9.1C8.5 38.1999 8 37.6999 8 37.0999V27.0999C8 26.3999 8.6 25.8999 9.3 25.9999L12.5 26.4999C12.6 26.4999 12.7 26.4999 12.9 26.4999L15.8 25.9999C15.9 25.9999 15.9 25.9999 16 25.9999H18.3C18.8 25.9999 19.3 25.5999 19.4 25.0999L20.2 21.5999C20.4 20.7999 19.6 19.9999 18.8 20.2999L17.7 20.6999C17.5 20.7999 17.3 20.7999 17.1 20.6999L14.2 20.1999C14 20.1999 13.8 20.1999 13.7 20.1999L12 20.5999C11.5 20.6999 11 20.5999 10.8 20.1999L9.2 17.7999C9.1 17.5999 9 17.2999 9 17.0999V13.9999C9 13.3999 9.5 12.8999 10.1 12.8999H11.5C11.8 12.8999 12.1 13.0999 12.3 13.2999Z" fill="#A2E62E"/>
</g>
<mask id="mask1_2259_62218" style="mask-type:luminance" maskUnits="userSpaceOnUse" x="8" y="7" width="39" height="40">
<path d="M47 7.5H8V46.5H47V7.5Z" fill="white"/>
</mask>
<g mask="url(#mask1_2259_62218)">
<path d="M18.1 25.8999C17.6 27.0999 17.4 26.1999 15.8 27.2999C13.8 28.6999 12.5 27.4999 10.7 28.0999C8.9 28.6999 10.8 30.2999 10.3 31.7999C9.8 33.2999 10.1 35.1999 11.7 36.6999C12.2 37.1999 11.4 37.6999 11.4 38.1999H9.1C8.5 38.1999 8 37.6999 8 37.0999V27.0999C8 26.3999 8.6 25.8999 9.3 25.9999L12.5 26.4999C12.6 26.4999 12.7 26.4999 12.9 26.4999L15.8 25.9999C15.9 25.9999 15.9 25.9999 16 25.9999H18.1V25.8999Z" fill="#97D729"/>
</g>
<mask id="mask2_2259_62218" style="mask-type:luminance" maskUnits="userSpaceOnUse" x="8" y="7" width="39" height="40">
<path d="M47 7.5H8V46.5H47V7.5Z" fill="white"/>
</mask>
<g mask="url(#mask2_2259_62218)">
<path d="M25.3 14.1999C24.9 14.6999 24.1 15.3 23 15.5C20.4 15.9 18.1 15.1 15.5 15.5C12.9 15.8 12.7 15.6 12.7 16.5C12.7 17.4 14.7 19.3 16 19.5C16 19.5 16 19.6999 17.5 20.6999C17.3 20.7999 17.1 20.7999 16.9 20.6999L14 20.1999C13.8 20.1999 13.6 20.1999 13.5 20.1999L12 20.5999C11.6 20.6999 11.1 20.5999 10.8 20.1999L9.2 17.7999C9.1 17.4999 9 17.2999 9 17.0999V13.9999C9 13.3999 9.5 12.8999 10.1 12.8999H11.4C11.7 12.8999 12 13.0999 12.3 13.2999L12.7 13.7999C12.9 13.9999 13.2 14.1999 13.5 14.1999H15C15.2 14.1999 15.4 14.1999 15.5 14.0999L17.5 13.0999C17.7 12.9999 17.8 12.9999 18 12.9999H19.9C20.1 12.9999 20.4 13.0999 20.6 13.1999L21.6 13.9999C21.8 14.0999 22 14.1999 22.3 14.1999H25.3Z" fill="#97D729"/>
</g>
</g>
<rect x="0.25" y="0.25" width="54.5" height="54.5" rx="27.25" stroke="#E3E9ED" stroke-width="0.5"/>
<defs>
<clipPath id="clip0_2259_62218">
<rect width="39" height="39" fill="white" transform="translate(8 7.5)"/>
</clipPath>
</defs>
</svg>
