<svg width="55" height="55" viewBox="0 0 55 55" fill="none" xmlns="http://www.w3.org/2000/svg">
<path d="M31.08 8.6171C31.08 8.6171 30.7067 8.99034 31.08 9.98058C31.4532 10.9708 30.1278 11.6792 30.9124 12.8751C31.697 14.071 32.9005 13.4997 33.7308 14.49C34.561 15.4802 34.104 16.5161 35.8026 16.8056C37.5013 17.095 36.6329 17.8415 37.9126 17.8415C39.1923 17.8415 38.6591 16.9275 40.0683 17.3007C41.4775 17.6739 39.1999 15.9372 38.4153 14.4443C37.6308 12.9513 38.9943 11.3821 37.8745 10.0568C36.7548 8.73898 32.6948 7.08605 31.08 8.6171Z" fill="#43CB8E"/>
<path d="M38.0573 15.2592C36.3587 14.9698 36.8157 13.9338 35.9855 12.9436C35.1552 11.9533 33.9593 12.5323 33.1671 11.3287C32.3749 10.1252 33.7079 9.42444 33.3347 8.43421C33.2814 8.2971 33.2433 8.15999 33.2128 8.01526C32.3673 7.96956 31.598 8.12952 31.08 8.62464C31.08 8.62464 30.7067 8.99788 31.08 9.98811C31.4532 10.9783 30.1278 11.6867 30.9124 12.8826C31.697 14.0785 32.9005 13.5073 33.7308 14.4975C34.561 15.4877 34.104 16.5237 35.8026 16.8131C37.5013 17.1026 36.6329 17.849 37.9126 17.849C39.1999 17.849 38.6591 16.935 40.0683 17.3082C40.8909 17.5291 40.4567 17.0188 39.7864 16.2647C39.0628 16.1199 39.5503 15.5182 38.0573 15.2592Z" fill="#00BA66"/>
<path d="M28.0941 14.0329C27.5076 13.195 27.5456 12.8141 26.982 12.1591C26.7154 11.8544 26.7001 11.5344 26.7611 11.2831C26.8449 10.9022 26.4183 10.6052 26.0908 10.8184C25.5423 11.1688 25.0472 11.9686 25.1615 12.5018C25.3443 13.3397 24.415 13.7815 24.4531 14.2005C24.4912 14.6194 26.0603 14.3833 26.4564 15.0155C26.8525 15.6477 27.4085 14.8555 27.896 14.985C28.3835 15.1069 28.6806 14.8708 28.0941 14.0329ZM41.3175 24.3009C41.607 23.5239 41.8736 23.3716 42.0488 22.6936C42.1326 22.3737 42.3306 22.2214 42.521 22.1452C42.8105 22.0309 42.8105 21.6044 42.521 21.4825C42.0335 21.2844 41.2718 21.3225 40.9747 21.6425C40.5025 22.1528 39.7788 21.7339 39.5199 21.9548C39.2609 22.1757 40.1369 23.105 39.9083 23.661C39.6722 24.2171 40.4492 24.2171 40.5939 24.6055C40.7386 24.994 41.0281 25.0778 41.3175 24.3009ZM40.5101 46.345C40.4035 44.7987 36.9757 45.6823 36.2064 44.913C35.4371 44.1436 34.3326 42.7573 31.956 43.0925C29.5794 43.42 30.3564 41.6604 29.8003 41.3786C29.2443 41.0968 27.3171 42.704 26.822 40.7159C26.3269 38.7278 28.5892 36.854 30.3031 37.6766C32.0169 38.4993 32.3978 36.8464 33.2281 37.3491C34.0583 37.8442 34.721 39.063 35.5437 38.3393C36.3664 37.6157 33.8298 36.2979 34.5535 35.1934C35.2695 34.0889 35.8255 33.2587 35.5437 32.1009C35.2619 30.943 37.0367 29.9376 36.7548 28.5893C36.4806 27.2411 38.5753 26.9059 38.4078 26.0833C38.2402 25.2606 36.9148 24.537 36.9148 23.8743C36.9148 23.2116 38.0193 22.6022 36.9681 21.4977C35.9169 20.3932 34.7058 19.1821 34.0431 20.1723C33.6927 20.7055 33.3347 20.6065 32.9081 20.5075C33.4033 21.3987 33.6851 22.4194 33.6851 23.5087C33.6851 25.9538 32.2683 28.0637 30.2117 29.0692C30.0365 29.153 29.8917 29.2901 29.8003 29.4577L27.8427 32.9311C27.698 33.1901 27.3171 33.1901 27.1724 32.9311L25.2148 29.4577C25.1158 29.2901 24.971 29.153 24.8035 29.0692C22.7849 28.0866 21.3833 26.0376 21.33 23.661C21.2691 21.2616 22.5564 19.1669 24.5064 18.0928C24.2474 17.9786 23.9808 17.8034 23.7066 17.552C22.3431 16.3104 20.1874 17.3464 19.0296 14.1167C17.8642 10.8946 13.5072 12.7151 12.5779 14.6575C12.5779 14.6575 11.8619 15.8153 12.5779 16.4247C13.2939 17.0341 11.9685 18.1386 15.4496 18.3594C18.9306 18.5803 15.8913 22.4423 18.2679 25.8091C20.6445 29.1759 15.9523 30.5546 17.8261 34.3632C19.6999 38.1718 19.9818 40.1065 21.3072 40.4341C22.6326 40.7616 22.1908 39.3829 22.8535 39.718C23.5162 40.0532 24.0646 44.0827 27.3247 44.1893C30.5849 44.3036 30.6915 45.6823 32.5121 45.3471C34.3326 45.012 33.7232 47.4419 36.4349 46.7792C39.1314 46.1241 40.6244 47.8913 40.5101 46.345Z" fill="#43CB8E"/>
<path d="M36.2063 44.913C35.437 44.1437 34.3325 42.7574 31.9559 43.0925C29.5794 43.4277 30.3563 41.6605 29.8003 41.3787C29.2442 41.0968 27.3171 42.7041 26.822 40.716C26.6925 40.1904 26.7534 39.68 26.9438 39.2154C26.2964 38.248 25.9841 37.2501 25.6489 37.0826C24.9862 36.755 25.428 38.1337 24.1026 37.7986C22.7772 37.4634 22.503 35.5363 20.6216 31.7277C19.2733 28.9855 21.3224 27.5078 21.6956 25.6339C21.4671 25.0017 21.3376 24.339 21.3224 23.6611C21.3224 23.6306 21.3224 23.6001 21.3224 23.5773C21.2462 23.4402 21.1548 23.3031 21.0634 23.1736C18.6868 19.8068 21.7261 15.9449 18.245 15.724C14.7716 15.4955 16.097 14.391 15.3809 13.7892C15.0001 13.4693 15.0229 12.997 15.1296 12.6238C14.0022 13.0275 12.9815 13.8349 12.5854 14.6652C12.5854 14.6652 11.8694 15.823 12.5854 16.4324C13.3015 17.0417 11.9761 18.1462 15.4571 18.3671C18.9382 18.588 15.8989 22.45 18.2755 25.8167C20.652 29.1835 15.9599 30.5623 17.8337 34.3708C19.7075 38.1794 19.9893 40.1142 21.3147 40.4417C22.6401 40.7693 22.1983 39.3906 22.861 39.7257C23.5237 40.0609 24.0722 44.0904 27.3323 44.197C30.5925 44.3113 30.6991 45.69 32.5196 45.3548C34.3401 45.0273 33.7308 47.4496 36.4425 46.7869C39.1466 46.1242 40.6395 47.8914 40.5253 46.3451C40.4034 44.7988 36.9757 45.6824 36.2063 44.913Z" fill="#00BA66"/>
<path d="M32.1007 19.3725C32.8244 19.3116 33.5556 18.4127 33.3957 17.9481C33.2205 17.4149 32.5882 17.3311 32.1769 16.7979C31.9865 16.5541 31.6742 16.2799 31.3847 16.059C31.0343 15.7924 30.5468 15.8076 30.2193 16.1047C29.8613 16.4246 29.4652 17.3844 29.7394 17.75C30.6611 18.1004 31.4609 18.6641 32.1007 19.3725Z" fill="#43CB8E"/>
<path d="M24.5064 18.0929C24.5064 18.0929 30.5011 21.5434 32.9234 20.5075C35.3456 19.4716 33.1671 29.8005 33.1671 29.8005L28.0027 34.4089L23.638 31.9942L21.6956 25.6339C21.6956 25.6339 21.3148 26.4946 21.3224 23.5772C21.33 20.6599 22.1298 18.0243 24.5064 18.0929Z" fill="#43CB8E"/>
<rect x="0.25" y="0.25" width="54.5" height="54.5" rx="27.25" stroke="#E3E9ED" stroke-width="0.5"/>
</svg>
